<svg xmlns="http://www.w3.org/2000/svg" width="391" height="195" viewBox="0 0 391 195" fill="none"><rect width="391" height="195" rx="10" fill="white"></rect><path d="M238.673 123.104C234.988 121.725 232.871 124.44 230.51 127.57C225.897 133.684 220.863 139.468 213.901 143.135C208.337 146.07 202.503 147.315 196.378 145.436C193.278 144.484 190.837 142.336 188.97 139.67C185.797 135.136 184.84 130.115 185.254 124.599C186.115 113.287 190.941 103.463 196.353 93.847C202.144 83.5659 208.983 74.0048 217.019 65.3589C222.852 59.0927 229.094 53.2535 237.057 49.6963C240.73 48.055 244.629 47.4326 248.57 48.6041C252.536 49.7756 255.294 53.9735 255.465 58.513C255.672 63.9129 254.11 68.8734 251.767 73.6143C248.771 79.6793 244.891 85.134 239.851 89.6858C238.728 90.6986 237.441 91.62 236.074 92.2484C233.353 93.4932 230.992 92.7061 229.283 90.2715C227.837 88.2031 227.99 85.3903 229.832 83.4256C231.071 82.1016 232.432 80.863 233.865 79.7525C239.241 75.5851 243.347 70.4598 245.794 64.0959C246.294 62.8024 246.544 61.3624 246.624 59.9774C246.74 57.9151 245.507 56.9632 243.726 57.9456C240.455 59.7455 237.105 61.5638 234.268 63.9434C223.853 72.6808 215.396 83.1632 208.337 94.7379C204.102 101.675 200.832 109.095 198.769 116.99C197.781 120.761 197.055 124.611 197.683 128.51C198.635 134.459 203.785 137.766 209.593 134.703C215.146 131.774 219.606 127.467 223.371 122.518C229.857 113.994 236.166 105.336 242.536 96.727C243.024 96.068 243.396 95.3236 243.848 94.6341C244.262 93.9935 244.629 93.2979 245.159 92.761C246.306 91.6017 247.667 91.1014 249.339 91.6383C251.078 92.1935 251.468 93.5786 251.548 95.0918C251.731 98.8015 251.731 102.517 251.987 106.221C252.487 113.512 253.036 120.798 253.744 128.071C253.952 130.212 254.769 132.293 255.312 134.398C255.666 135.759 253.824 139.773 252.567 140.31C252.371 140.396 252.066 140.463 251.92 140.365C249.87 139.084 247.447 138.224 247.051 135.277C246.569 131.664 245.953 128.071 245.263 124.489C245.159 123.964 244.372 123.256 243.835 123.183C242.383 123 240.894 123.122 238.686 123.122L238.673 123.104ZM244.836 109.095C244.574 109.04 244.311 108.991 244.055 108.936C242.945 110.486 241.797 112.017 240.736 113.604C240.272 114.306 239.985 115.129 239.619 115.892C240.443 116.038 241.267 116.221 242.096 116.331C242.615 116.398 243.176 116.447 243.677 116.331C244.092 116.234 244.775 115.898 244.787 115.642C244.879 113.464 244.836 111.279 244.836 109.095Z" fill="#231F20"></path><path d="M113 127.698C113.415 121.463 115.319 116.777 118.54 112.652C124.025 105.623 130.981 100.528 139.389 97.5568C141.275 96.8917 143.459 96.7331 145.479 96.8429C150.921 97.1297 153.38 102.273 150.561 107.325C146.833 114.007 141.207 118.601 134.178 121.402C131.256 122.567 128.114 123.208 125.044 123.989C123.421 124.404 123.037 125.203 124.044 126.606C125.728 128.961 128.229 129.004 130.737 128.833C134.227 128.589 137.302 127.107 140.201 125.307C142.739 123.732 145.125 121.902 147.602 120.23C148.621 119.547 149.676 118.912 150.781 118.369C152.141 117.704 153.453 117.936 154.472 119.065C155.522 120.23 155.717 121.67 154.954 123C154.295 124.153 153.459 125.301 152.44 126.143C145.137 132.214 137.089 136.869 127.436 137.784C122.219 138.285 117.363 137.101 114.495 132.11C113.592 130.548 113.305 128.626 113.006 127.692L113 127.698ZM128.242 116.948C128.425 116.917 128.602 116.911 128.772 116.862C134.185 115.276 138.932 112.67 142.141 107.844C142.568 107.203 142.538 106.27 142.721 105.471C141.879 105.367 140.945 104.964 140.213 105.202C134.685 106.996 130.658 110.754 127.369 115.386C126.765 116.234 126.948 116.99 128.236 116.948H128.242Z" fill="#231F20"></path><path d="M276.796 98.6183C276.845 102.182 275.283 105.092 273.013 107.673C272.171 108.631 271.951 109.333 273.208 110.01C278.108 112.67 279.413 117.149 278.736 122.158C277.748 129.474 273.684 134.508 266.454 136.741C264.697 137.284 262.988 137.998 261.243 138.59C260.962 138.687 260.547 138.657 260.285 138.51C259.059 137.821 257.436 134.367 257.79 132.982C258.888 128.656 259.022 124.288 258.815 119.852C258.644 116.203 258.711 112.542 258.711 108.881C258.711 107.484 258.711 106.428 256.697 106.495C254.531 106.563 252.866 103.414 254.165 101.614C257.558 96.9282 261.591 92.8524 267.387 91.2782C272.738 89.8199 276.765 93.0781 276.802 98.6183H276.796ZM265.99 129.883C270.035 128.205 272.671 122.671 271.603 118.393C271.433 117.716 271.201 117.033 270.871 116.417C270.157 115.08 268.51 114.549 266.869 115.092C265.532 115.532 265.447 116.575 265.496 117.802C265.63 121.45 265.661 125.099 265.752 128.754C265.758 129.077 265.886 129.401 265.99 129.883ZM264.398 101.352C264.52 102.804 264.562 103.988 264.776 105.141C264.819 105.379 265.789 105.702 265.838 105.641C267.363 103.457 268.858 101.242 270.255 98.9722C270.371 98.7892 269.822 97.8739 269.444 97.7641C268.046 97.3492 264.422 100.217 264.404 101.358L264.398 101.352Z" fill="#231F20"></path><path d="M170.324 108.308C173.716 108.485 176.017 108.558 178.305 108.741C181.014 108.96 182.381 110.803 182.149 113.775C181.941 116.368 180.312 117.802 177.658 117.619C173.137 117.307 168.634 117.173 164.149 118.143C161.818 118.644 159.61 116.752 159.231 114.183C158.859 111.663 160.659 109.04 163.142 108.771C165.888 108.478 168.658 108.411 170.324 108.308Z" fill="#231F20"></path></svg>